<?xml version="1.0" encoding="UTF-8" standalone="no"?>
<svg
   xmlns:dc="http://purl.org/dc/elements/1.1/"
   xmlns:cc="http://creativecommons.org/ns#"
   xmlns:rdf="http://www.w3.org/1999/02/22-rdf-syntax-ns#"
   xmlns:svg="http://www.w3.org/2000/svg"
   xmlns="http://www.w3.org/2000/svg"
   height="100"
   width="100"
   id="right-arrow"
   version="1.1"
   viewBox="0 0 100 100"
   xml:space="preserve"
   sodipodi:docname="if_148_111063.svg"
   inkscape:version="0.92+devel unknown"><sodipodi:namedview
     inkscape:document-rotation="0"
     borderopacity="1"
     objecttolerance="10"
     gridtolerance="10"
     guidetolerance="10"
     inkscape:pageopacity="0"
     inkscape:pageshadow="2"
     inkscape:window-width="1636"
     inkscape:window-height="986"
     id="namedview5"
     showgrid="false"
     inkscape:zoom="2.788"
     inkscape:cx="90.771361"
     inkscape:cy="39.541141"
     inkscape:window-x="0"
     inkscape:window-y="27"
     inkscape:window-maximized="0"
     inkscape:current-layer="Layer_1" /><path
     clip-rule="evenodd"
     d="m 53.14918,85.739501 c -1.19747,0.89403 -2.692059,1.416836 -4.297244,1.418377 -3.978507,-0.0013 -7.204736,-3.227773 -7.205157,-7.205157 l 5.95e-4,-7.217644 C 41.646601,70.745051 40.02661,69.124986 38.038269,69.125972 L 13.849442,69.113082 C 9.857321,69.125722 6.6313721,65.899767 6.6444251,61.908067 l -8.38e-4,-25.247031 c -0.011371,-3.9917 3.2147209,-7.217792 7.2052979,-7.205299 l 24.189775,-0.01276 c 1.989041,-6.44e-4 3.60784,-1.61964 3.608684,-3.60868 v -7.217682 c -5.96e-4,-3.978086 3.225808,-7.204461 7.203893,-7.203894 1.607011,6.45e-4 3.098091,0.523225 4.296821,1.415431 l 38.880781,30.054446 c 3.545243,3.545243 3.545243,9.258621 0,12.803864 z"
     fill="#fff"
     fill-rule="evenodd"
     id="path2"
     inkscape:connector-curvature="0"
     style="stroke-width:0.19848514;" /></svg>
